<svg class="svg-icon" style="width: 1em; height: 1em;vertical-align: middle;fill: currentColor;overflow: hidden;" viewBox="0 0 1024 1024" version="1.1" xmlns="http://www.w3.org/2000/svg"><path d="M978.72 863.072c31.936 31.936 31.936 83.68 0 115.616-15.968 15.968-36.896 23.968-57.824 23.968s-41.824-7.968-57.824-23.968l-351.072-351.072-351.072 351.072c-15.968 15.968-36.896 23.936-57.824 23.936s-41.856-7.968-57.824-23.936c-31.968-31.968-31.968-83.712 0-115.648l351.072-351.072-351.072-351.072c-31.936-31.968-31.936-83.68 0-115.616s83.68-31.968 115.616 0l351.072 351.072 351.072-351.072c31.936-31.968 83.712-31.968 115.648 0s31.936 83.68 0 115.616l-351.072 351.072 351.072 351.072z"  /></svg>