<?xml version="1.0" standalone="no"?>
<!DOCTYPE svg PUBLIC "-//W3C//DTD SVG 20010904//EN"
 "http://www.w3.org/TR/2001/REC-SVG-20010904/DTD/svg10.dtd">
<svg version="1.0" xmlns="http://www.w3.org/2000/svg"
 width="512.000000pt" height="512.000000pt" viewBox="0 0 512.000000 512.000000"
 preserveAspectRatio="xMidYMid meet">

<g transform="translate(0.000000,512.000000) scale(0.100000,-0.100000)"
fill="#000000" stroke="none">
<path d="M1310 4683 c-47 -8 -126 -30 -177 -48 -171 -61 -291 -141 -425 -284
-97 -104 -167 -215 -215 -343 -71 -189 -67 -99 -71 -1393 -2 -858 0 -1194 8
-1260 52 -397 332 -741 710 -873 180 -63 158 -62 1419 -62 1259 0 1242 -1
1417 61 308 107 555 354 662 659 63 181 62 158 62 1419 0 1259 1 1242 -61
1417 -108 310 -353 555 -663 663 -176 62 -157 61 -1426 60 -983 -1 -1168 -3
-1240 -16z m2517 -454 c170 -62 295 -173 368 -324 67 -142 65 -92 65 -1345 0
-1253 2 -1203 -65 -1345 -58 -122 -168 -232 -290 -290 -142 -67 -92 -65 -1345
-65 -1230 0 -1198 -1 -1327 56 -156 69 -288 216 -344 385 l-24 74 0 1185 0
1185 24 74 c32 97 82 178 158 254 92 93 201 151 328 177 22 4 567 7 1210 7
l1170 -2 72 -26z"/>
<path d="M3345 3407 c-16 -6 -40 -18 -53 -25 -12 -7 -226 -257 -474 -555 -248
-298 -461 -553 -473 -566 l-23 -23 -243 222 c-151 137 -261 230 -288 242 -61
28 -144 22 -200 -15 -64 -43 -95 -97 -99 -176 -3 -58 1 -72 25 -112 39 -64
689 -654 751 -681 54 -24 120 -21 178 8 30 15 175 183 601 694 339 406 567
687 574 708 18 55 7 144 -24 191 -52 78 -173 121 -252 88z"/>
</g>
</svg>
